<svg width="33" height="26" viewBox="0 0 33 26" fill="none" xmlns="http://www.w3.org/2000/svg">
<path d="M5.5 21.6663C4.74375 21.6663 4.09613 21.454 3.55713 21.0293C3.01813 20.6047 2.74909 20.0948 2.75 19.4997V6.49968C2.75 5.90384 3.0195 5.39359 3.5585 4.96893C4.0975 4.54426 4.74467 4.33229 5.5 4.33301H27.5C28.2563 4.33301 28.9039 4.54534 29.4429 4.97001C29.9819 5.39468 30.2509 5.90457 30.25 6.49968V19.4997C30.25 20.0955 29.9805 20.6058 29.4415 21.0304C28.9025 21.4551 28.2553 21.6671 27.5 21.6663H5.5ZM16.5 13.8934C16.6146 13.8934 16.7351 13.8797 16.8616 13.8523C16.9881 13.8248 17.1082 13.7844 17.2219 13.7309L26.95 8.93718C27.1333 8.8469 27.2708 8.73387 27.3625 8.59809C27.4542 8.46231 27.5 8.31354 27.5 8.15176C27.5 7.79065 27.3052 7.51982 26.9156 7.33926C26.526 7.1587 26.125 7.16773 25.7125 7.36634L16.5 11.9163L7.2875 7.36634C6.875 7.16773 6.47396 7.1634 6.08438 7.35334C5.69479 7.54329 5.5 7.80943 5.5 8.15176C5.5 8.33231 5.54584 8.49048 5.6375 8.62626C5.72917 8.76204 5.86667 8.86568 6.05 8.93718L15.7781 13.7309C15.8927 13.7851 16.0133 13.8259 16.1398 13.8533C16.2663 13.8808 16.3863 13.8941 16.5 13.8934Z" fill="#FFB600"/>
</svg>
