<svg width="130" height="130" viewBox="0 0 130 130" fill="none" xmlns="http://www.w3.org/2000/svg">
<circle cx="65" cy="65" r="65" fill="#1B273D"/>
<g clip-path="url(#clip0_534_7545)">
<path d="M64.4987 107.381C87.9311 107.592 107.169 88.6989 107.381 65.2664C107.593 41.8339 88.6993 22.5959 65.2668 22.3841C41.8343 22.1723 22.5962 41.0658 22.3845 64.4983C22.1727 87.9307 41.0662 107.169 64.4987 107.381ZM65.2428 25.0402C87.2118 25.2388 104.923 43.2735 104.725 65.2424C104.526 87.2114 86.4916 104.923 64.5227 104.724C42.5537 104.526 24.8421 86.4912 25.0406 64.5223C25.2392 42.5533 43.2739 24.8417 65.2428 25.0402Z" fill="#FFB600"/>
<path d="M75.5313 80.3C75.6532 80.4255 75.7987 80.5255 75.9595 80.5943C76.1203 80.6631 76.2931 80.6994 76.468 80.7009C76.6429 80.7025 76.8164 80.6694 76.9784 80.6035C77.1404 80.5376 77.2877 80.4402 77.4119 80.317C77.6631 80.0702 77.806 79.7338 77.8092 79.3816C77.8124 79.0294 77.6755 78.6904 77.4288 78.4392L64.8761 65.6602L65.0436 47.1363C65.0467 46.784 64.9099 46.445 64.6631 46.1937C64.4162 45.9423 64.0797 45.7994 63.7275 45.7962C63.3753 45.793 63.0362 45.9299 62.7849 46.1767C62.5336 46.4235 62.3906 46.76 62.3874 47.1123L62.215 66.186C62.2118 66.5393 62.3496 66.8779 62.5943 67.1298L75.5313 80.3Z" fill="#FFB600"/>
<path d="M32.9851 67.2504C34.452 67.2636 35.652 66.0852 35.6652 64.6182C35.6785 63.1513 34.5 61.9513 33.0331 61.9381C31.5661 61.9248 30.3662 63.1033 30.3529 64.5702C30.3397 66.0372 31.5181 67.2371 32.9851 67.2504Z" fill="#FFB600"/>
<path d="M96.7322 67.8265C98.1991 67.8398 99.399 66.6613 99.4123 65.1944C99.4256 63.7274 98.2471 62.5275 96.7802 62.5142C95.3132 62.501 94.1133 63.6794 94.1 65.1464C94.0868 66.6133 95.2652 67.8133 96.7322 67.8265Z" fill="#FFB600"/>
<path d="M64.656 35.3363C66.1229 35.3495 67.3229 34.1711 67.3361 32.7042C67.3494 31.2372 66.1709 30.0373 64.704 30.024C63.237 30.0107 62.0371 31.1892 62.0238 32.6561C62.0106 34.1231 63.189 35.323 64.656 35.3363Z" fill="#FFB600"/>
<path d="M64.571 99.4125C66.038 99.4257 67.2379 98.2473 67.2512 96.7803C67.2644 95.3134 66.086 94.1134 64.619 94.1002C63.1521 94.0869 61.9521 95.2654 61.9389 96.7323C61.9256 98.1993 63.1041 99.3992 64.571 99.4125Z" fill="#FFB600"/>
<path d="M43.8015 46.097C45.2684 46.1103 46.4684 44.9318 46.4816 43.4649C46.4949 41.9979 45.3164 40.798 43.8495 40.7847C42.3826 40.7715 41.1826 41.9499 41.1694 43.4169C41.1561 44.8838 42.3345 46.0838 43.8015 46.097Z" fill="#FFB600"/>
<path d="M85.9157 88.9798C87.3827 88.9931 88.5826 87.8147 88.5959 86.3477C88.6092 84.8808 87.4307 83.6808 85.9638 83.6676C84.4968 83.6543 83.2969 84.8327 83.2836 86.2997C83.2704 87.7666 84.4488 88.9666 85.9157 88.9798Z" fill="#FFB600"/>
<path d="M88.9558 46.5052C90.4227 46.5185 91.6227 45.34 91.6359 43.8731C91.6492 42.4062 90.4707 41.2062 89.0038 41.193C87.5369 41.1797 86.3369 42.3581 86.3237 43.8251C86.3104 45.292 87.4888 46.492 88.9558 46.5052Z" fill="#FFB600"/>
<path d="M43.4177 88.5961C44.8846 88.6093 46.0846 87.4309 46.0978 85.9639C46.1111 84.497 44.9327 83.297 43.4657 83.2838C41.9988 83.2705 40.7988 84.449 40.7856 85.9159C40.7723 87.3829 41.9508 88.5828 43.4177 88.5961Z" fill="#FFB600"/>
</g>
<defs>
<clipPath id="clip0_534_7545">
<rect width="85" height="85" fill="white" transform="translate(22.7686 22) rotate(0.517801)"/>
</clipPath>
</defs>
</svg>
