<svg width="109" height="109" viewBox="0 0 109 109" fill="none" xmlns="http://www.w3.org/2000/svg">
<path d="M97.3214 0H11.6786C8.58122 0 5.61073 1.23042 3.42057 3.42057C1.23042 5.61073 0 8.58122 0 11.6786L0 97.3214C0 100.419 1.23042 103.389 3.42057 105.579C5.61073 107.77 8.58122 109 11.6786 109H45.072V71.9424H29.7439V54.5H45.072V41.2059C45.072 26.0846 54.0742 17.732 67.8622 17.732C74.4655 17.732 81.3704 18.9096 81.3704 18.9096V33.7511H73.7623C66.2662 33.7511 63.928 38.403 63.928 43.1742V54.5H80.6624L77.9861 71.9424H63.928V109H97.3214C100.419 109 103.389 107.77 105.579 105.579C107.77 103.389 109 100.419 109 97.3214V11.6786C109 8.58122 107.77 5.61073 105.579 3.42057C103.389 1.23042 100.419 0 97.3214 0Z" fill="#FFB600"/>
</svg>
