<svg width="109" height="109" viewBox="0 0 109 109" fill="none" xmlns="http://www.w3.org/2000/svg">
<path d="M54.5 40.984C51.8268 40.984 49.2136 41.7767 46.9909 43.2619C44.7682 44.747 43.0358 46.8579 42.0128 49.3276C40.9898 51.7974 40.7222 54.515 41.2437 57.1368C41.7652 59.7587 43.0525 62.167 44.9427 64.0573C46.833 65.9475 49.2413 67.2348 51.8632 67.7563C54.485 68.2778 57.2026 68.0101 59.6723 66.9872C62.1421 65.9642 64.253 64.2318 65.7381 62.0091C67.2233 59.7864 68.016 57.1732 68.016 54.5C68.016 52.7251 67.6664 50.9675 66.9872 49.3276C66.3079 47.6878 65.3123 46.1978 64.0573 44.9427C62.8022 43.6877 61.3122 42.6921 59.6723 42.0128C58.0325 41.3336 56.2749 40.984 54.5 40.984ZM108.619 27.6315C108.59 23.4228 107.815 19.2525 106.329 15.3145C105.236 12.4329 103.543 9.81596 101.364 7.63646C99.184 5.45696 96.5671 3.76441 93.6855 2.6705C89.7475 1.18518 85.5772 0.410172 81.3685 0.3815C74.338 -3.57832e-07 72.267 0 54.5 0C36.733 0 34.662 -3.57832e-07 27.6315 0.3815C23.4228 0.410172 19.2525 1.18518 15.3145 2.6705C12.4329 3.76441 9.81596 5.45696 7.63646 7.63646C5.45696 9.81596 3.76441 12.4329 2.6705 15.3145C1.18518 19.2525 0.410172 23.4228 0.3815 27.6315C-3.89814e-07 34.662 0 36.733 0 54.5C0 72.267 -3.89814e-07 74.338 0.3815 81.3685C0.440163 85.592 1.21412 89.7751 2.6705 93.74C3.75956 96.6085 5.4507 99.2102 7.63 101.37C9.80015 103.563 12.4227 105.255 15.3145 106.329C19.2525 107.815 23.4228 108.59 27.6315 108.618C34.662 109 36.733 109 54.5 109C72.267 109 74.338 109 81.3685 108.618C85.5772 108.59 89.7475 107.815 93.6855 106.329C96.5773 105.255 99.1998 103.563 101.37 101.37C103.549 99.2102 105.24 96.6085 106.329 93.74C107.813 89.7827 108.588 85.5948 108.619 81.3685C109 74.338 109 72.267 109 54.5C109 36.733 109 34.662 108.619 27.6315ZM94.7755 71.2315C94.6006 74.5947 93.8828 77.9075 92.65 81.0415C91.592 83.6558 90.0191 86.0306 88.0249 88.0249C86.0306 90.0191 83.6558 91.592 81.0415 92.65C77.8778 93.8141 74.5466 94.4583 71.177 94.5575H37.823C34.4534 94.4583 31.1222 93.8141 27.9585 92.65C25.2559 91.6457 22.8152 90.0434 20.819 87.963C18.8443 86.0078 17.3192 83.6459 16.35 81.0415C15.1813 77.8811 14.5548 74.5461 14.497 71.177V37.823C14.5548 34.4539 15.1813 31.1189 16.35 27.9585C17.3543 25.2559 18.9566 22.8152 21.037 20.819C23.0008 18.8549 25.3603 17.3315 27.9585 16.35C31.1222 15.1859 34.4534 14.5417 37.823 14.4425H71.177C74.5466 14.5417 77.8778 15.1859 81.0415 16.35C83.7441 17.3543 86.1848 18.9566 88.181 21.037C90.1557 22.9922 91.6808 25.3541 92.65 27.9585C93.8141 31.1222 94.4583 34.4534 94.5575 37.823V54.5C94.5575 65.727 94.939 66.8715 94.7755 71.177V71.2315ZM86.0555 30.6835C85.4066 28.9231 84.3835 27.3244 83.0568 25.9977C81.7301 24.671 80.1314 23.6479 78.371 22.999C75.9538 22.1611 73.4079 21.7553 70.85 21.8H38.15C35.5791 21.8251 33.0328 22.3049 30.629 23.217C28.8955 23.8364 27.3137 24.8177 25.9888 26.0957C24.6638 27.3737 23.6261 28.919 22.9445 30.629C22.153 33.0562 21.7664 35.5972 21.8 38.15V70.85C21.854 73.418 22.3328 75.9594 23.217 78.371C23.8659 80.1314 24.889 81.7301 26.2157 83.0568C27.5424 84.3835 29.1411 85.4066 30.9015 86.0555C33.2268 86.9107 35.6738 87.389 38.15 87.4725H70.85C73.4209 87.4474 75.9672 86.9676 78.371 86.0555C80.1314 85.4066 81.7301 84.3835 83.0568 83.0568C84.3835 81.7301 85.4066 80.1314 86.0555 78.371C86.9677 75.9672 87.4474 73.4209 87.4725 70.85V38.15C87.4741 35.5765 86.9935 33.0255 86.0555 30.629V30.6835ZM54.5 75.319C51.7686 75.319 49.064 74.7801 46.5412 73.7332C44.0183 72.6863 41.7269 71.1519 39.798 69.218C37.8691 67.284 36.3407 64.9885 35.3004 62.463C34.2601 59.9374 33.7283 57.2314 33.7355 54.5C33.7355 50.3801 34.9579 46.3528 37.248 42.9279C39.538 39.5031 42.7927 36.8347 46.6001 35.2606C50.4074 33.6865 54.5962 33.2774 58.6362 34.0851C62.6761 34.8928 66.3856 36.8811 69.295 39.7981C72.2044 42.7152 74.183 46.4298 74.9801 50.4719C75.7772 54.514 75.3572 58.7017 73.7731 62.5049C72.189 66.3081 69.5121 69.5558 66.0812 71.8369C62.6504 74.1179 58.6199 75.3298 54.5 75.319ZM76.3 37.7685C75.0952 37.641 73.9803 37.0721 73.17 36.1715C72.3597 35.2709 71.9113 34.1022 71.9113 32.8907C71.9113 31.6793 72.3597 30.5106 73.17 29.61C73.9803 28.7094 75.0952 28.1405 76.3 28.013C77.5048 28.1405 78.6197 28.7094 79.43 29.61C80.2403 30.5106 80.6887 31.6793 80.6887 32.8907C80.6887 34.1022 80.2403 35.2709 79.43 36.1715C78.6197 37.0721 77.5048 37.641 76.3 37.7685Z" fill="#FFB600"/>
</svg>
