<svg width="130" height="130" viewBox="0 0 130 130" fill="none" xmlns="http://www.w3.org/2000/svg">
<circle cx="65" cy="65" r="65" fill="#1B273D"/>
<path d="M23.8518 57.6947L72.3395 107.07C72.7672 107.506 73.3154 107.803 73.9134 107.924C74.5114 108.044 75.1319 107.983 75.6951 107.749L99.9909 97.6013C100.451 97.4082 100.857 97.1054 101.174 96.7192C101.49 96.333 101.707 95.8751 101.805 95.3857C101.904 94.8963 101.881 94.3902 101.739 93.9117C101.596 93.4332 101.339 92.9968 100.989 92.6407L86.4297 77.8084C85.9806 77.3506 85.3989 77.0457 84.7669 76.9369C84.1349 76.828 83.4848 76.9208 82.9084 77.2019L76.2043 80.4788L50.5009 54.3047L53.9043 47.6605C54.1966 47.0899 54.302 46.4418 54.2057 45.808C54.1095 45.1742 53.8163 44.5867 53.3678 44.1287L38.7959 29.3023C38.4458 28.9462 38.0138 28.6813 37.5376 28.5309C37.0615 28.3804 36.5557 28.3489 36.0646 28.4392C35.5734 28.5294 35.1119 28.7387 34.7203 29.0486C34.3288 29.3585 34.0191 29.7597 33.8185 30.217L23.2282 54.3272C22.9833 54.886 22.9112 55.5053 23.0212 56.1055C23.1312 56.7057 23.4184 57.2591 23.8457 57.6947L23.8518 57.6947ZM29.6532 54.8865L37.6035 36.8039L47.4633 46.8504L45.0678 51.5294L43.0643 55.4478L46.147 58.593L71.8443 84.761L74.9331 87.9064L78.8869 85.9677L83.614 83.6632L93.474 93.6975L75.252 101.314L29.6532 54.8865ZM65.2635 47.3475L65.3187 41.2354C71.8024 41.294 77.9972 43.926 82.5404 48.5524C87.0836 53.1788 89.603 59.4206 89.5444 65.9047L83.4328 65.8495C83.4767 60.9864 81.5872 56.305 78.1798 52.8352C74.7724 49.3654 70.1262 47.3914 65.2635 47.3475ZM65.4292 29.0112L65.4845 22.8991C76.8308 23.0016 87.6718 27.6076 95.6224 35.7038C103.573 43.8 107.982 54.7232 107.879 66.0704L101.768 66.0152C101.856 56.289 98.0765 46.9263 91.2617 39.9867C84.4469 33.0471 75.1547 29.0991 65.4292 29.0112Z" fill="#FFB600"/>
</svg>
