<svg width="130" height="130" viewBox="0 0 130 130" fill="none" xmlns="http://www.w3.org/2000/svg">
<circle cx="65" cy="65" r="65" fill="#1B273D"/>
<path d="M65.7671 113L62.1508 109.425C55.2155 102.547 27.0384 71.4369 27.0384 56.2144C26.8201 52.2958 27.558 48.3807 29.21 44.6928C30.862 41.0049 33.3956 37.6163 36.6663 34.7207C39.937 31.8251 43.8806 29.4791 48.272 27.8167C52.6634 26.1543 57.4164 25.2081 62.2598 25.0321C63.3629 24.9893 64.4626 24.9893 65.5591 25.0321C70.4024 24.8577 75.2407 25.4568 79.7979 26.7954C84.355 28.134 88.5415 30.1857 92.1186 32.8334C95.6956 35.4811 98.593 38.673 100.645 42.2267C102.698 45.7804 103.865 49.6264 104.08 53.5451C104.126 54.4322 104.126 55.3166 104.08 56.1984C104.08 69.024 86.1866 90.4108 70.5921 107.621L65.7671 113ZM65.5591 32.1663C61.5867 31.9498 57.603 32.4234 53.8755 33.5553C50.148 34.6873 46.763 36.4513 43.9477 38.7291C41.1325 41.0069 38.9521 43.7457 37.5531 46.7615C36.154 49.7773 35.5687 53.0004 35.8363 56.2144C35.8363 66.3788 54.4923 89.5691 65.4303 101.265C74.6938 90.988 95.262 67.4609 95.262 56.2144C95.5296 53.0004 94.9443 49.7773 93.5452 46.7615C92.1462 43.7457 89.9658 41.0069 87.1506 38.7291C84.3353 36.4513 80.9503 34.6873 77.2228 33.5553C73.4953 32.4234 69.5116 31.9498 65.5392 32.1663H65.5591Z" fill="#FFB600"/>
<ellipse cx="65.5576" cy="58" rx="10.7959" ry="11" fill="#FFB600"/>
</svg>
