<?xml version="1.0" standalone="no"?>
<!DOCTYPE svg PUBLIC "-//W3C//DTD SVG 20010904//EN"
 "http://www.w3.org/TR/2001/REC-SVG-20010904/DTD/svg10.dtd">
<svg version="1.0" xmlns="http://www.w3.org/2000/svg"
 width="915.000000pt" height="915.000000pt" viewBox="0 0 915.000000 915.000000"
 preserveAspectRatio="xMidYMid meet">
<metadata>
Created by potrace 1.14, written by Peter Selinger 2001-2017
</metadata>
<g transform="translate(0.000000,915.000000) scale(0.100000,-0.100000)"
fill="#000000" stroke="none">
<path d="M0 4575 l0 -4575 4575 0 4575 0 0 4575 0 4575 -4575 0 -4575 0 0
-4575z m4596 2680 c9 -8 26 -15 40 -15 14 0 24 -6 24 -14 0 -8 13 -17 29 -21
16 -3 32 -13 35 -21 3 -8 19 -14 36 -14 20 0 30 -5 30 -15 0 -8 9 -15 20 -15
11 0 20 -6 20 -14 0 -8 13 -17 29 -21 16 -3 32 -13 35 -21 3 -8 19 -14 36 -14
20 0 30 -5 30 -15 0 -8 9 -15 20 -15 11 0 28 -9 37 -20 10 -11 23 -20 29 -20
7 0 14 -7 18 -15 3 -9 18 -15 36 -15 19 0 30 -5 30 -14 0 -8 13 -17 29 -21 16
-3 32 -13 35 -21 3 -8 19 -14 36 -14 20 0 30 -5 30 -15 0 -8 9 -15 20 -15 11
0 20 -6 20 -14 0 -8 13 -17 29 -21 16 -3 32 -13 35 -21 3 -8 19 -14 36 -14 20
0 30 -5 30 -15 0 -8 9 -15 20 -15 11 0 20 -6 20 -14 0 -8 13 -17 29 -21 16 -3
32 -13 35 -21 3 -8 19 -14 36 -14 17 0 30 -5 30 -13 0 -12 7 -17 66 -47 16 -8
33 -20 37 -27 4 -7 21 -13 37 -13 19 0 30 -5 30 -14 0 -8 13 -17 29 -21 16 -3
32 -13 35 -21 3 -8 14 -14 25 -14 10 0 21 -7 25 -15 3 -8 17 -15 31 -15 15 0
25 -6 25 -15 0 -8 14 -17 35 -21 20 -3 35 -12 35 -20 0 -9 11 -14 30 -14 20 0
30 -5 30 -15 0 -8 9 -15 20 -15 11 0 20 -7 20 -15 0 -8 14 -17 35 -21 20 -3
35 -12 35 -20 0 -9 11 -14 30 -14 20 0 30 -5 30 -15 0 -8 14 -17 35 -21 20 -3
35 -12 35 -20 0 -8 9 -14 20 -14 11 0 20 -7 20 -15 0 -10 10 -15 30 -15 20 0
30 -5 30 -15 0 -8 14 -17 35 -21 20 -3 35 -12 35 -20 0 -9 11 -14 30 -14 20 0
30 -5 30 -15 0 -8 9 -15 20 -15 11 0 20 -7 20 -15 0 -8 14 -17 35 -21 20 -3
35 -12 35 -20 0 -9 11 -14 30 -14 19 0 30 -5 30 -14 0 -8 15 -17 35 -20 21 -4
35 -13 35 -21 0 -8 9 -15 20 -15 11 0 20 -7 20 -15 0 -10 10 -15 30 -15 19 0
30 -5 30 -14 0 -8 15 -17 35 -20 21 -4 35 -13 35 -21 0 -10 10 -15 30 -15 20
0 30 -5 30 -15 0 -8 9 -15 20 -15 11 0 20 -7 20 -15 0 -8 14 -17 35 -21 20 -3
35 -12 35 -20 0 -9 11 -14 30 -14 20 0 30 -5 30 -15 0 -8 7 -15 15 -15 8 0 24
-9 35 -20 11 -11 29 -20 40 -20 11 0 20 -7 20 -15 0 -10 10 -15 30 -15 19 0
30 -5 30 -14 0 -8 15 -17 35 -20 21 -4 35 -13 35 -21 0 -8 9 -15 20 -15 20 0
20 -7 20 -770 0 -423 -2 -770 -4 -770 -2 0 -42 18 -90 40 l-86 41 0 682 0 682
-1018 588 c-901 519 -1024 587 -1060 587 -30 0 -42 -4 -42 -14 0 -8 -13 -17
-30 -21 -16 -4 -30 -13 -30 -21 0 -8 -9 -14 -20 -14 -11 0 -20 -7 -20 -15 0
-10 -11 -15 -35 -15 -24 0 -35 -5 -35 -14 0 -8 -13 -17 -30 -21 -16 -4 -30
-13 -30 -21 0 -8 -9 -14 -20 -14 -11 0 -20 -7 -20 -15 0 -10 -10 -15 -30 -15
-17 0 -33 -6 -36 -14 -3 -8 -19 -18 -35 -21 -16 -4 -29 -13 -29 -21 0 -9 -11
-14 -35 -14 -24 0 -35 -5 -35 -15 0 -8 -6 -15 -13 -15 -7 0 -20 -9 -30 -20 -9
-11 -26 -20 -37 -20 -11 0 -20 -7 -20 -15 0 -10 -11 -15 -35 -15 -24 0 -35 -5
-35 -14 0 -8 -13 -17 -30 -21 -16 -4 -30 -13 -30 -21 0 -8 -9 -14 -20 -14 -11
0 -20 -7 -20 -15 0 -10 -11 -15 -35 -15 -24 0 -35 -5 -35 -14 0 -8 -13 -17
-30 -21 -16 -4 -30 -13 -30 -21 0 -9 -11 -14 -35 -14 -24 0 -35 -5 -35 -15 0
-8 -9 -15 -20 -15 -11 0 -20 -6 -20 -14 0 -8 -13 -17 -30 -21 -16 -4 -30 -13
-30 -21 0 -9 -11 -14 -35 -14 -24 0 -35 -5 -35 -15 0 -8 -7 -15 -15 -15 -9 0
-18 -6 -21 -14 -3 -8 -19 -18 -35 -21 -16 -4 -29 -13 -29 -21 0 -9 -11 -14
-35 -14 -24 0 -35 -5 -35 -14 0 -8 -13 -17 -29 -21 -16 -3 -32 -13 -35 -21 -3
-8 -12 -14 -21 -14 -8 0 -15 -7 -15 -15 0 -10 -11 -15 -35 -15 -24 0 -35 -5
-35 -14 0 -8 -13 -17 -30 -21 -16 -4 -30 -13 -30 -21 0 -9 -11 -14 -35 -14
-24 0 -35 -5 -35 -15 0 -8 -9 -15 -20 -15 -11 0 -20 -7 -20 -15 0 -8 -14 -17
-35 -21 -20 -3 -35 -12 -35 -20 0 -9 -11 -14 -30 -14 -20 0 -30 -5 -30 -15 0
-8 -7 -15 -15 -15 -9 0 -18 -7 -21 -15 -3 -8 -21 -17 -40 -21 -19 -3 -34 -12
-34 -20 0 -9 -11 -14 -29 -14 -20 0 -30 -6 -34 -20 -4 -15 -14 -20 -36 -20
-21 0 -31 -5 -31 -15 0 -8 -9 -15 -20 -15 -11 0 -20 -7 -20 -15 0 -10 -10 -15
-30 -15 -23 0 -30 -4 -30 -20 0 -16 -7 -20 -35 -20 -24 0 -35 -5 -35 -15 0 -8
-9 -15 -20 -15 -11 0 -28 -9 -37 -20 -10 -11 -23 -20 -30 -20 -7 0 -13 -7 -13
-15 0 -10 -11 -15 -35 -15 -24 0 -35 -5 -35 -15 0 -10 -10 -15 -29 -15 -20 0
-30 -6 -34 -20 -4 -15 -14 -20 -36 -20 l-31 0 0 -1705 0 -1705 1238 0 1237 0
34 -62 c19 -35 54 -92 78 -128 l43 -65 -697 -5 c-384 -3 -1203 -4 -1820 -2
l-1123 2 0 2005 c0 1776 2 2005 15 2005 8 0 15 6 15 14 0 8 15 17 35 20 21 4
35 13 35 21 0 10 10 15 30 15 20 0 30 5 30 15 0 8 9 15 20 15 11 0 20 7 20 15
0 8 14 17 35 21 20 3 35 12 35 20 0 9 11 14 30 14 19 0 30 5 30 14 0 8 15 17
35 20 21 4 35 13 35 21 0 8 9 15 20 15 11 0 20 7 20 15 0 10 10 15 30 15 19 0
30 5 30 14 0 8 15 17 35 20 21 4 35 13 35 21 0 10 10 15 30 15 20 0 30 5 30
15 0 8 9 15 20 15 11 0 20 7 20 15 0 8 14 17 35 21 20 3 35 12 35 20 0 9 11
14 30 14 19 0 30 5 30 14 0 8 15 17 35 20 21 4 35 13 35 21 0 8 9 15 20 15 11
0 20 7 20 15 0 10 10 15 30 15 17 0 33 6 36 14 3 8 19 18 35 21 16 4 29 13 29
21 0 8 9 14 20 14 11 0 20 7 20 15 0 10 10 15 30 15 17 0 33 6 36 14 3 8 19
18 35 21 16 4 29 13 29 21 0 9 11 14 35 14 24 0 35 5 35 15 0 8 7 15 15 15 9
0 18 6 21 14 3 8 19 18 35 21 16 4 29 13 29 21 0 9 11 14 35 14 24 0 35 5 35
14 0 8 14 17 30 21 17 4 30 13 30 21 0 8 9 14 20 14 11 0 20 7 20 15 0 10 11
15 35 15 24 0 35 5 35 14 0 8 14 17 30 21 17 4 30 13 30 21 0 9 11 14 35 14
24 0 35 5 35 15 0 8 7 15 15 15 9 0 18 6 21 14 3 8 19 18 35 21 16 4 29 13 29
21 0 9 11 14 35 14 24 0 35 5 35 14 0 8 13 17 29 21 16 3 32 13 35 21 3 8 12
14 21 14 8 0 15 7 15 15 0 10 11 15 35 15 24 0 35 5 35 14 0 8 13 17 29 21 16
3 32 13 35 21 3 8 12 14 21 14 8 0 15 7 15 15 0 10 11 15 35 15 24 0 35 5 35
14 0 8 14 17 30 21 17 4 30 13 30 21 0 9 11 14 35 14 24 0 35 5 35 15 0 8 7
15 15 15 9 0 18 7 21 15 3 8 21 17 40 21 19 3 34 12 34 20 0 9 11 14 30 14 20
0 30 5 30 15 0 8 14 17 35 21 20 3 35 12 35 20 0 8 9 14 20 14 11 0 20 7 20
15 0 10 10 15 30 15 20 0 30 5 30 15 0 8 14 17 35 21 20 3 35 12 35 20 0 8 8
14 19 14 10 0 24 7 31 15 7 8 19 15 27 15 8 0 21 -7 29 -15z"/>
</g>
</svg>
