<svg width="24" height="24" viewBox="0 0 24 24" fill="none" xmlns="http://www.w3.org/2000/svg">
<path fill-rule="evenodd" clip-rule="evenodd" d="M12.9078 1.58103C12.8278 1.40757 12.6997 1.26066 12.5388 1.15769C12.3779 1.05472 12.1909 1 11.9998 1C11.8088 1 11.6217 1.05472 11.4608 1.15769C11.2999 1.26066 11.1719 1.40757 11.0918 1.58103L8.22183 7.80103L1.42083 8.60803C1.23108 8.63043 1.05172 8.70673 0.903976 8.82789C0.756234 8.94905 0.646295 9.10999 0.587169 9.29168C0.528044 9.47337 0.522208 9.6682 0.570351 9.8531C0.618495 10.038 0.718603 10.2052 0.858827 10.335L5.88883 14.985L4.55383 21.705C4.51675 21.8924 4.53408 22.0864 4.60377 22.2642C4.67347 22.442 4.79261 22.5961 4.94711 22.7083C5.10162 22.8205 5.28503 22.8862 5.47565 22.8975C5.66628 22.9087 5.85615 22.8652 6.02283 22.772L11.9998 19.426L17.9768 22.772C18.1436 22.8656 18.3337 22.9094 18.5246 22.8983C18.7156 22.8871 18.8993 22.8214 19.054 22.709C19.2087 22.5966 19.328 22.4422 19.3976 22.264C19.4672 22.0859 19.4843 21.8916 19.4468 21.704L18.1118 14.986L23.1408 10.335C23.2811 10.2052 23.3812 10.038 23.4293 9.8531C23.4774 9.6682 23.4716 9.47337 23.4125 9.29168C23.3534 9.10999 23.2434 8.94905 23.0957 8.82789C22.9479 8.70673 22.7686 8.63043 22.5788 8.60803L15.7768 7.80003L12.9078 1.58103Z" fill="#FFB600"/>
</svg>
