<svg width="29" height="28" viewBox="0 0 29 28" fill="none" xmlns="http://www.w3.org/2000/svg">
<path d="M0.307113 11.5856L17.0015 27.7055C17.1488 27.8475 17.3367 27.9438 17.5411 27.9818C17.7455 28.0198 17.957 27.9979 18.1484 27.9189L26.406 24.504C26.5624 24.4391 26.7 24.3381 26.8068 24.21C26.9135 24.0818 26.9861 23.9304 27.0181 23.7688C27.0502 23.6073 27.0409 23.4407 26.9909 23.2835C26.9409 23.1263 26.8517 22.9833 26.7313 22.8671L21.7183 18.0247C21.5637 17.8752 21.3643 17.7765 21.1484 17.7425C20.9325 17.7086 20.7109 17.7411 20.5152 17.8354L18.2381 18.9348L9.38833 10.3896L10.529 8.19083C10.6269 8.00201 10.6609 7.78823 10.6261 7.57974C10.5913 7.37124 10.4895 7.17859 10.335 7.02906L5.31794 2.18865C5.1974 2.0724 5.04919 1.98644 4.88628 1.93829C4.72337 1.89014 4.55073 1.88128 4.38345 1.91247C4.21617 1.94366 4.05935 2.01396 3.92672 2.11721C3.79409 2.22047 3.68969 2.35353 3.62264 2.50477L0.0839928 10.4781C0.00213896 10.6629 -0.0205522 10.8672 0.0188407 11.0645C0.0582337 11.2619 0.157907 11.4434 0.305028 11.5856H0.307113ZM2.27766 10.6432L4.93426 4.66322L8.32903 7.94317L7.52621 9.49154L6.85476 10.7882L7.91615 11.8151L16.7638 20.3583L17.8273 21.3852L19.1702 20.7348L20.7758 19.9616L24.1706 23.2376L17.9774 25.8007L2.27766 10.6432ZM14.4033 8.05392V6.04044C16.6155 6.04044 18.737 6.88897 20.3013 8.39937C21.8655 9.90978 22.7443 11.9583 22.7443 14.0944H20.659C20.659 12.4923 20 10.9559 18.8268 9.82312C17.6536 8.69032 16.0624 8.05392 14.4033 8.05392ZM14.4033 2.01348V0C18.2746 0 21.9873 1.48494 24.7247 4.12814C27.4621 6.77134 29 10.3563 29 14.0944H26.9148C26.9148 10.8903 25.5966 7.81749 23.2502 5.55188C20.9039 3.28628 17.7216 2.01348 14.4033 2.01348Z" fill="#FFB600"/>
</svg>
